REM DIRINDEX 1\6,1\2\7,1\2\8,1\2\9,1\3\10,1\3\11,1\4\12,1\4\13,1\4\14,1\5\15,1\5\16,1\5\17
REM DIRNAME folder01,folder02,folder03,folder04,folder05,folder06,folder07,folder08,folder09,folder10,folder11,folder12,folder13,folder14,folder15,folder16,folder17
TITLE ""
FILE "3Q_t_0376-0391.mp3" MP3
  TRACK 01 AUDIO
    TITLE "10:cjc041_2359"
    INDEX 01 00:00:00
  TRACK 02 AUDIO
    TITLE "0:"
    INDEX 01 00:00:72
  TRACK 03 AUDIO
    TITLE "11:cjc041_2360"
    INDEX 01 00:01:54
  TRACK 04 AUDIO
    TITLE "0:"
    INDEX 01 00:02:47
  TRACK 05 AUDIO
    TITLE "10:cjc041_2361"
    INDEX 01 00:03:31
  TRACK 06 AUDIO
    TITLE "0:"
    INDEX 01 00:04:56
  TRACK 07 AUDIO
    TITLE "11:cjc041_2362"
    INDEX 01 00:05:34
  TRACK 08 AUDIO
    TITLE "0:"
    INDEX 01 00:06:35
  TRACK 09 AUDIO
    TITLE "10:cjc041_2363"
    INDEX 01 00:07:17
  TRACK 10 AUDIO
    TITLE "0:"
    INDEX 01 00:08:36
  TRACK 11 AUDIO
    TITLE "11:cjc041_2364"
    INDEX 01 00:09:12
  TRACK 12 AUDIO
    TITLE "0:"
    INDEX 01 00:11:01
  TRACK 13 AUDIO
    TITLE "10:cjc041_2365"
    INDEX 01 00:11:58
  TRACK 14 AUDIO
    TITLE "0:"
    INDEX 01 00:12:73
  TRACK 15 AUDIO
    TITLE "11:cjc041_2366"
    INDEX 01 00:13:53
  TRACK 16 AUDIO
    TITLE "0:"
    INDEX 01 00:14:66
  TRACK 17 AUDIO
    TITLE "10:cjc041_2367"
    INDEX 01 00:15:50
  TRACK 18 AUDIO
    TITLE "0:"
    INDEX 01 00:16:65
  TRACK 19 AUDIO
    TITLE "11:cjc041_2368"
    INDEX 01 00:17:43
  TRACK 20 AUDIO
    TITLE "0:"
    INDEX 01 00:18:35
  TRACK 21 AUDIO
    TITLE "10:cjc041_2369"
    INDEX 01 00:19:16
  TRACK 22 AUDIO
    TITLE "0:"
    INDEX 01 00:20:32
  TRACK 23 AUDIO
    TITLE "11:cjc041_2370"
    INDEX 01 00:21:09
  TRACK 24 AUDIO
    TITLE "0:"
    INDEX 01 00:22:09
  TRACK 25 AUDIO
    TITLE "10:cjc041_2371"
    INDEX 01 00:22:60
  TRACK 26 AUDIO
    TITLE "0:"
    INDEX 01 00:24:00
  TRACK 27 AUDIO
    TITLE "11:cjc041_2372"
    INDEX 01 00:24:55
  TRACK 28 AUDIO
    TITLE "0:"
    INDEX 01 00:25:56
  TRACK 29 AUDIO
    TITLE "10:cjc041_2373"
    INDEX 01 00:26:34
  TRACK 30 AUDIO
    TITLE "0:"
    INDEX 01 00:27:53
  TRACK 31 AUDIO
    TITLE "11:cjc041_2374"
    INDEX 01 00:28:31
  TRACK 32 AUDIO
    TITLE "0:"
    INDEX 01 00:29:34
  TRACK 33 AUDIO
    TITLE "10:cjc041_2375"
    INDEX 01 00:30:16
  TRACK 34 AUDIO
    TITLE "0:"
    INDEX 01 00:31:31
  TRACK 35 AUDIO
    TITLE "11:cjc041_2376"
    INDEX 01 00:32:13
  TRACK 36 AUDIO
    TITLE "0:"
    INDEX 01 00:33:24
  TRACK 37 AUDIO
    TITLE "10:cjc041_2377"
    INDEX 01 00:34:06
  TRACK 38 AUDIO
    TITLE "0:"
    INDEX 01 00:35:21
  TRACK 39 AUDIO
    TITLE "11:cjc041_2378"
    INDEX 01 00:35:72
  TRACK 40 AUDIO
    TITLE "0:"
    INDEX 01 00:37:10
  TRACK 41 AUDIO
    TITLE "10:cjc041_2379"
    INDEX 01 00:37:65
  TRACK 42 AUDIO
    TITLE "0:"
    INDEX 01 00:39:03
  TRACK 43 AUDIO
    TITLE "11:cjc041_2380"
    INDEX 01 00:39:54
  TRACK 44 AUDIO
    TITLE "0:"
    INDEX 01 00:41:02
  TRACK 45 AUDIO
    TITLE "10:cjc041_2381"
    INDEX 01 00:41:53
  TRACK 46 AUDIO
    TITLE "0:"
    INDEX 01 00:42:66
  TRACK 47 AUDIO
    TITLE "11:cjc041_2382"
    INDEX 01 00:43:44
  TRACK 48 AUDIO
    TITLE "0:"
    INDEX 01 00:44:52
  TRACK 49 AUDIO
    TITLE "10:cjc041_2383"
    INDEX 01 00:45:28
  TRACK 50 AUDIO
    TITLE "0:"
    INDEX 01 00:46:41
  TRACK 51 AUDIO
    TITLE "11:cjc041_2384"
    INDEX 01 00:47:19
  TRACK 52 AUDIO
    TITLE "0:"
    INDEX 01 00:49:39
  TRACK 53 AUDIO
    TITLE "10:cjc041_2385"
    INDEX 01 00:50:19
  TRACK 54 AUDIO
    TITLE "0:"
    INDEX 01 00:51:30
  TRACK 55 AUDIO
    TITLE "11:cjc041_2386"
    INDEX 01 00:52:06
  TRACK 56 AUDIO
    TITLE "0:"
    INDEX 01 00:54:09
  TRACK 57 AUDIO
    TITLE "10:cjc041_2387"
    INDEX 01 00:54:60
  TRACK 58 AUDIO
    TITLE "0:"
    INDEX 01 00:56:02
  TRACK 59 AUDIO
    TITLE "11:cjc041_2388"
    INDEX 01 00:56:53
  TRACK 60 AUDIO
    TITLE "0:"
    INDEX 01 00:57:72
  TRACK 61 AUDIO
    TITLE "10:cjc041_2389"
    INDEX 01 00:58:52
  TRACK 62 AUDIO
    TITLE "0:"
    INDEX 01 00:59:71
  TRACK 63 AUDIO
    TITLE "11:cjc041_2390"
    INDEX 01 01:00:47
  TRACK 64 AUDIO
    TITLE "0:"
    INDEX 01 01:02:59
